<?xml version="1.0" encoding="utf-8"?>
<!-- Generator: Adobe Illustrator 25.4.1, SVG Export Plug-In . SVG Version: 6.00 Build 0)  -->
<svg version="1.1" id="Capa_1" xmlns="http://www.w3.org/2000/svg" xmlns:xlink="http://www.w3.org/1999/xlink" x="0px" y="0px"
	 viewBox="0 0 512 512" style="enable-background:new 0 0 512 512;" xml:space="preserve">
<style type="text/css">
	.st0{fill-rule:evenodd;clip-rule:evenodd;fill:#CCF49F;}
	.st1{fill-rule:evenodd;clip-rule:evenodd;fill:#F6C863;}
	.st2{fill:#575B6D;}
	.st3{fill-rule:evenodd;clip-rule:evenodd;fill:#6AA2E6;}
	.st4{fill-rule:evenodd;clip-rule:evenodd;fill:#A5CDFF;}
	.st5{fill:#71AAF0;}
	.st6{fill:#4982C9;}
	.st7{fill-rule:evenodd;clip-rule:evenodd;fill:#FFCBBE;}
	.st8{fill-rule:evenodd;clip-rule:evenodd;fill:#D09080;}
	.st9{fill:#2BA53D;}
	.st10{fill:#FF800D;}
</style>
<g>
	<path class="st0" d="M3.1,199.5c0-3.9,3.2-7.2,7.2-7.2h112.4c4,0,7.2,3.2,7.2,7.2V312c0,4-3.2,7.2-7.2,7.2H10.3
		c-4,0-7.2-3.2-7.2-7.2L3.1,199.5z"/>
	<path class="st0" d="M3.1,32.1c0-3.9,3.2-7.2,7.2-7.2h112.4c4,0,7.2,3.2,7.2,7.2v112.5c0,4-3.2,7.2-7.2,7.2H10.3
		c-4,0-7.2-3.2-7.2-7.2L3.1,32.1z"/>
	<path class="st1" d="M3.1,366.8c0-3.9,3.2-7.2,7.2-7.2h112.4c4,0,7.2,3.2,7.2,7.2v112.5c0,3.9-3.2,7.2-7.2,7.2H10.3
		c-4,0-7.2-3.3-7.2-7.2L3.1,366.8z"/>
	<path class="st2" d="M162.8,417.3c-4.5,0-8.2-3.6-8.2-8.1s3.7-8.2,8.2-8.2h104.9c4.5,0,8.2,5.7,8.2,10.2s-3.7,6.1-8.2,6.1H162.8z
		 M164.7,452.1c-5.6,0-10.1-3.6-10.1-8.1s4.6-8.2,10.1-8.2h87.4c5.6,0,10,3.7,10,8.2s-4.4,8.1-10,8.1H164.7z M162.8,230.9
		c-4.5,0-8.2-3.6-8.2-8.1s3.7-8.2,8.2-8.2h104.9c4.5,0,8.2,3.7,8.2,8.2s-3.7,8.1-8.2,8.1H162.8z M162.8,302.8
		c-4.5,0-8.2-3.6-8.2-8.1s3.7-8.2,8.2-8.2h70.8c4.5,0,8.1,3.7,8.1,8.2s-3.6,8.1-8.1,8.1H162.8z M162.8,266.9c-4.5,0-8.2-3.7-8.2-8.2
		s3.7-8.1,8.2-8.1h104.9c4.5,0,8.2,3.6,8.2,8.1s-3.7,8.2-8.2,8.2H162.8z M162.1,115.7c-4.5,0-8.2-3.7-8.2-8.2s3.7-8.1,8.2-8.1H267
		c4.5,0,8.2,3.6,8.2,8.1s-3.7,8.2-8.2,8.2H162.1z"/>
	<path class="st3" d="M480.7,293v178.5c-0.6,5.5-5,9.9-10.6,10.5h-95.5c-5.5-0.6-9.9-5-10.6-10.5V293H480.7z"/>
	<path class="st4" d="M376.3,130.8h92.3c23.4,0,42.5,19.1,42.5,42.5v93c0,16.8-13.6,30.3-30.3,30.3h-11.5l-7.2-2.5l-6.6,2.5h-66.1
		l-6.5-3.3l-7.3,3.3h-11.5c-16.8,0-30.3-13.6-30.3-30.3v-93C333.8,149.9,352.9,130.8,376.3,130.8L376.3,130.8z"/>
	<path class="st5" d="M455.4,296.6V191.8c0-3.8,3.1-6.9,6.9-6.9s6.9,3.1,6.9,6.9v104.8H455.4z M375.6,296.6V191.8
		c0-3.8,3.1-6.9,6.9-6.9s6.9,3.1,6.9,6.9v104.8H375.6z"/>
	<path class="st6" d="M415.5,482V334.3c0-3.8,3.1-6.9,6.9-6.9s6.9,3.1,6.9,6.9V482H415.5z"/>
	<g>
		<path class="st7" d="M465.4,95.1c0,23.7-19.4,43-43,43s-43-19.4-43-43v-46c0-13.3,10.9-24.1,24.1-24.1h37.9
			c13.2,0,24.1,10.8,24.1,24.1v46H465.4z"/>
		<path class="st8" d="M379.4,49.1v16.8c12.1,4.5,22.3,0.7,28.1-2.6c4.5-2.6,5.3-3.1,9.8,0.9c20.6,18.1,48.2,8,48.2,8v-23
			c0-13.3-10.8-24.1-24.1-24.1h-37.9C390.2,25,379.4,35.8,379.4,49.1L379.4,49.1z"/>
	</g>
	<path class="st9" d="M85.7,67.4c3.2-3.2,8.4-3.2,11.6,0s3.2,8.3,0,11.5l-30.5,30.4c-3.2,3.2-8.4,3.2-11.5,0L35.8,90
		c-3.2-3.2-3.2-8.3,0-11.5s8.4-3.2,11.6,0L61,92.1L85.7,67.4z"/>
	<path class="st9" d="M85.7,234.7c3.2-3.2,8.4-3.2,11.6,0s3.2,8.4,0,11.6l-30.5,30.4c-3.2,3.2-8.4,3.2-11.5,0l-19.4-19.4
		c-3.2-3.2-3.2-8.3,0-11.5s8.4-3.2,11.6,0L61,259.4L85.7,234.7z"/>
</g>
<path class="st10" d="M101.2,445.4c2.3,3.9-0.6,8.8-5.1,8.8H37.2c-4.5,0-7.4-4.9-5.1-8.8l29.5-51.1c2.3-3.9,7.9-3.9,10.2,0
	L101.2,445.4L101.2,445.4z M66.6,434.9c-3.1,0-5.6,2.5-5.6,5.6s2.5,5.6,5.6,5.6s5.6-2.5,5.6-5.6C72.3,437.4,69.8,434.9,66.6,434.9z
	 M61.3,414.6l0.9,16.7c0,0.8,0.7,1.4,1.5,1.4h6c0.8,0,1.4-0.6,1.5-1.4l0.9-16.7c0-0.8-0.6-1.6-1.5-1.6h-7.8
	C61.9,413,61.2,413.7,61.3,414.6L61.3,414.6z"/>
<path class="st2" d="M161.5,82.9c-4.5,0-8.2-3.6-8.2-8.1s3.7-8.2,8.2-8.2h70.8c4.5,0,8.1,3.7,8.1,8.2s-3.6,8.1-8.1,8.1H161.5z"/>
</svg>
