<?xml version="1.0" encoding="utf-8"?>
<!-- Generator: Adobe Illustrator 25.4.1, SVG Export Plug-In . SVG Version: 6.00 Build 0)  -->
<svg version="1.1" id="icon" xmlns="http://www.w3.org/2000/svg" xmlns:xlink="http://www.w3.org/1999/xlink" x="0px" y="0px"
	 viewBox="0 0 506.9 475.2" style="enable-background:new 0 0 506.9 475.2;" xml:space="preserve">
<style type="text/css">
	.st0{fill:#EAB54E;}
	.st1{fill:#F6C863;}
	.st2{fill:#EEEFEE;}
	.st3{fill:#DBD8DD;}
	.st4{fill:#575B6D;}
</style>
<path class="st0" d="M26,125.9v311.3c0,7.6,6.2,13.7,13.7,13.7h427.4c7.6,0,13.7-6.2,13.7-13.7V125.9H26z"/>
<path class="st1" d="M449.6,33.8c-1.9-5.6-7.2-9.3-13.1-9.3H70.3c-5.9,0-11.2,3.7-13.1,9.3L26,125.9h454.9L449.6,33.8z"/>
<path class="st2" d="M290,24.5h-73.3L202,125.9h102.8L290,24.5z"/>
<path class="st3" d="M202.1,125.9v82.3l23.5-19.3l14,19.3l14-19.3l14,19.3l14-19.3l23.5,19.3v-82.3H202.1z"/>
<path class="st4" d="M119.3,337.1l-27.9-43.8l-27.9,43.8h17.6v59.1h20.7v-59.1H119.3z"/>
<path class="st4" d="M182,337.1L154,293.3l-27.9,43.8h17.6v59.1h20.7v-59.1H182z"/>
<path class="st4" d="M70.2,404.8h105.1v12.9H70.2V404.8z"/>
</svg>
