<?xml version="1.0" encoding="utf-8"?>
<!-- Generator: Adobe Illustrator 25.4.1, SVG Export Plug-In . SVG Version: 6.00 Build 0)  -->
<svg version="1.1" id="Capa_1" xmlns="http://www.w3.org/2000/svg" xmlns:xlink="http://www.w3.org/1999/xlink" x="0px" y="0px"
	 viewBox="0 0 512.5 512.5" style="enable-background:new 0 0 512.5 512.5;" xml:space="preserve">
<style type="text/css">
	.st0{fill:#FFC107;}
	.st1{fill:#4982C9;}
	.st2{fill:#4CAF50;}
</style>
<path class="st0" d="M266.9,21.8c-5.4,0-9.8,4.4-9.8,9.8v215.5c0,5.4,4.4,9.8,9.8,9.8h215.5c5.4,0,9.8-4.4,9.8-9.8
	C492.1,122.7,391.3,21.9,266.9,21.8z"/>
<path class="st1" d="M372.6,437L237.5,263.4V51.2c0-5.4-4.4-9.8-9.8-9.8C114.3,41.4,22,142.5,22,266.7
	C22.1,391.1,122.9,491.9,247.3,492c45.2,3.5,89.8-11.4,123.8-41.4C375.2,447.3,375.9,441.2,372.6,437z"/>
<path class="st2" d="M482.5,276.5H286.5c-5.4,0-9.8,4.4-9.8,9.8c0,2.2,0.8,4.4,2.2,6.2l127.4,157.7c1.7,2.1,4.2,3.4,6.9,3.6h0.7
	c2.5,0,4.9-0.9,6.7-2.6c45.6-42.7,71.6-102.3,71.7-164.8C492.3,280.9,487.9,276.5,482.5,276.5z"/>
</svg>
